<?xml version="1.0" standalone="no"?>
<!DOCTYPE svg PUBLIC "-//W3C//DTD SVG 20010904//EN"
 "http://www.w3.org/TR/2001/REC-SVG-20010904/DTD/svg10.dtd">
<svg version="1.0" xmlns="http://www.w3.org/2000/svg"
 width="2493.000000pt" height="2493.000000pt" viewBox="0 0 2493.000000 2493.000000"
 preserveAspectRatio="xMidYMid meet">
<metadata>
Created by potrace 1.14, written by Peter Selinger 2001-2017
</metadata>
<g transform="translate(0.000000,2493.000000) scale(0.100000,-0.100000)"
fill="#000000" stroke="none">
<path d="M4577 24544 c-1 -1 -150 -5 -332 -8 -181 -3 -364 -8 -405 -11 -133
-7 -244 -15 -290 -20 -189 -21 -219 -25 -350 -51 -139 -28 -302 -79 -394 -126
-273 -138 -426 -373 -452 -698 -3 -36 -7 -84 -9 -106 -3 -34 35 -282 48 -319
2 -5 7 -27 12 -48 4 -20 11 -40 16 -43 5 -3 9 -13 9 -23 0 -33 129 -275 188
-353 131 -175 310 -333 557 -493 50 -32 102 -67 117 -77 15 -10 29 -18 32 -18
3 0 27 -13 53 -28 71 -42 204 -113 318 -170 108 -54 375 -182 380 -182 1 0 54
-24 116 -54 63 -29 134 -62 158 -72 24 -10 73 -33 108 -49 l65 -30 -144 -130
c-320 -290 -607 -578 -916 -920 -15 -16 -57 -64 -92 -105 -36 -41 -67 -77 -70
-80 -10 -9 -204 -243 -282 -340 -116 -145 -253 -327 -363 -480 -60 -84 -266
-383 -297 -430 -372 -574 -698 -1174 -948 -1745 -29 -66 -61 -139 -72 -163
-10 -24 -37 -89 -59 -145 -22 -56 -46 -115 -54 -132 -41 -94 -200 -535 -260
-725 -37 -116 -134 -440 -140 -465 -2 -11 -27 -105 -55 -210 -85 -323 -164
-695 -230 -1090 -5 -33 -12 -73 -15 -90 -8 -48 -43 -305 -50 -365 -4 -30 -8
-66 -10 -80 -2 -14 -7 -55 -10 -92 -3 -37 -8 -76 -10 -87 -2 -11 -7 -61 -10
-111 -4 -51 -8 -99 -10 -109 -2 -9 -6 -66 -10 -126 -4 -61 -8 -132 -10 -160
-29 -363 -24 -1154 9 -1582 3 -40 9 -108 12 -150 3 -43 7 -89 9 -103 2 -14 6
-59 10 -100 3 -41 8 -86 10 -100 2 -14 7 -52 10 -85 7 -76 18 -162 30 -235 3
-14 7 -50 10 -80 3 -30 9 -77 15 -105 5 -27 11 -70 14 -95 3 -25 12 -81 21
-125 63 -339 81 -429 111 -570 120 -549 283 -1101 479 -1625 118 -316 213
-543 365 -875 49 -107 283 -572 324 -643 20 -35 36 -65 36 -67 0 -6 193 -340
226 -392 19 -30 34 -56 34 -59 0 -3 13 -25 30 -49 16 -24 30 -48 30 -54 0 -6
4 -11 8 -11 5 0 14 -11 20 -25 17 -36 227 -354 350 -530 419 -596 821 -1074
1347 -1600 273 -273 366 -362 570 -540 37 -33 73 -64 79 -70 58 -52 168 -144
306 -254 91 -73 172 -138 180 -144 8 -7 56 -43 105 -80 50 -38 97 -74 105 -80
142 -115 752 -525 938 -632 9 -6 71 -42 137 -81 185 -111 373 -215 605 -336
65 -34 65 -34 127 -152 86 -163 159 -278 275 -431 95 -125 247 -279 379 -385
252 -201 521 -317 837 -359 62 -8 4405 -7 4492 2 25 2 108 7 185 12 77 4 142
8 145 10 3 2 52 6 109 10 58 4 111 8 120 10 9 1 54 6 101 10 47 4 93 9 102 10
9 2 48 7 85 10 37 4 75 9 83 10 8 1 40 6 70 10 30 3 66 8 80 10 14 2 45 7 70
10 25 3 56 8 70 10 14 3 54 9 90 14 36 6 76 12 90 15 14 3 43 8 65 11 22 4 54
9 70 11 17 3 111 21 210 41 99 19 191 37 205 40 14 2 72 16 130 29 58 14 114
27 125 28 11 2 49 11 85 21 36 9 74 19 84 21 11 2 96 24 190 49 998 269 1939
656 2844 1172 l184 104 45 -45 c43 -43 121 -88 188 -108 16 -5 62 -9 102 -9
146 0 275 69 351 188 73 116 87 271 35 387 -20 44 -26 35 82 111 156 109 692
519 725 555 3 3 45 38 93 78 48 41 98 83 111 95 13 12 52 47 87 77 188 164
277 248 544 515 138 137 280 282 315 320 112 122 216 239 246 275 16 19 34 40
40 45 6 6 46 53 90 105 43 52 81 97 84 100 3 3 24 28 45 55 22 28 42 52 46 55
3 3 69 87 148 187 79 101 147 181 151 178 5 -3 12 1 17 8 4 8 16 18 27 24 16
9 17 11 2 16 -10 4 -15 3 -13 -1 2 -4 -4 -15 -15 -24 -29 -29 -21 -3 11 31
l28 30 54 -28 c285 -153 632 68 613 389 -7 117 -51 208 -139 289 -30 27 -55
52 -55 54 0 3 18 34 40 68 43 70 56 92 153 257 217 368 438 793 597 1152 23
52 53 118 65 145 12 28 39 91 59 140 21 50 43 104 51 120 50 112 194 503 280
762 99 298 265 882 289 1013 2 14 11 52 19 85 14 52 87 407 102 490 2 17 7 41
10 55 2 13 7 42 10 65 3 22 8 47 10 55 4 12 21 125 51 320 11 75 23 167 29
215 3 28 7 66 10 85 2 19 7 62 10 95 3 33 8 76 10 95 6 53 14 136 21 225 3 44
7 96 9 115 2 19 6 94 10 165 3 72 9 137 11 146 3 11 21 19 51 24 115 17 248
120 301 232 24 52 27 69 27 168 0 121 -4 144 -33 201 -49 94 -149 178 -250
208 -56 16 -55 16 -76 16 -10 0 -14 21 -16 88 -1 48 -3 116 -5 152 -7 142 -16
307 -20 350 -2 25 -6 83 -10 130 -3 47 -8 101 -10 120 -2 19 -7 64 -10 100 -4
36 -8 79 -10 95 -2 17 -6 55 -10 85 -18 163 -48 379 -65 480 -5 30 -12 78 -16
105 -3 28 -8 52 -9 55 -2 3 -6 26 -9 50 -4 25 -9 56 -11 70 -3 14 -8 36 -10
50 -3 14 -12 63 -21 110 -8 47 -31 157 -51 245 -19 88 -36 167 -38 175 -14 72
-127 504 -171 655 -54 186 -183 581 -241 740 -56 153 -105 280 -118 310 -7 17
-42 102 -78 190 -106 260 -198 463 -349 765 -117 236 -278 532 -399 736 l-78
132 34 68 c20 38 39 90 44 116 29 160 -40 329 -169 419 -87 60 -155 79 -266
75 l-84 -3 -52 74 c-475 670 -1113 1388 -1713 1928 -55 49 -102 92 -105 95 -5
5 -146 128 -185 161 -22 19 -84 71 -165 139 -29 25 -62 51 -74 59 -12 8 -23
17 -26 21 -5 5 -176 140 -290 228 -30 23 -125 93 -212 155 -149 107 -156 114
-163 152 -16 101 -113 228 -211 278 -89 45 -165 57 -274 43 -42 -6 -51 -3
-145 55 -107 66 -301 180 -400 234 -33 18 -103 57 -155 85 -93 51 -605 310
-613 310 -3 0 -47 20 -98 44 -134 63 -424 186 -564 240 -66 26 -129 51 -140
55 -83 37 -450 164 -685 239 -152 48 -423 128 -464 137 -12 2 -90 22 -175 44
-121 32 -396 97 -491 116 -314 64 -658 123 -875 150 -27 4 -61 8 -75 11 -32 5
-365 41 -445 48 -239 21 -286 24 -640 41 -128 7 11 6 -4160 6 -1958 0 -3703 1
-3878 2 -175 1 -319 1 -320 1z"/>
<path d="M22225 5290 c-3 -5 -1 -10 4 -10 6 0 11 5 11 10 0 6 -2 10 -4 10 -3
0 -8 -4 -11 -10z"/>
</g>
</svg>
